<svg width="312" height="95" viewBox="0 0 312 95" fill="none" xmlns="http://www.w3.org/2000/svg">
<path d="M79.4158 68.4219C71.8689 66.0677 63.9835 65.1146 56.322 63.1406C49.1397 61.2188 41.3064 58.8646 36.7074 52.5938C30.8741 44.0365 32.8116 31.3438 40.546 24.5938C46.9158 18.6667 56.0199 16.8958 64.4783 17.2969C68.3168 17.6406 72.1762 18.3229 75.7283 19.8229C77.8377 20.6823 79.9679 21.8229 82.2491 22.0469C82.6866 22.0885 83.1241 22.1042 83.5772 22.0677H83.5981C83.7699 22.0469 83.9418 22.0313 84.1085 22.0104C84.4731 21.9896 84.8324 21.9323 85.1918 21.8594L92.2439 20.9635C91.7908 19.6927 91.2751 18.4948 90.6866 17.375C90.421 16.8594 90.1345 16.349 89.8533 15.8698C89.8533 15.8542 89.8324 15.8542 89.8324 15.8333C88.046 12.849 85.8429 10.4375 83.4054 8.49479C79.6241 5.20833 75.1606 2.75521 70.3116 1.39063C69.6293 1.21875 68.9262 1.06771 68.2231 0.932292C63.0877 -0.322918 57.8064 0.171876 52.5772 0.078125C35.072 0.0416677 17.5512 0.208333 0.0459845 0C-0.0321408 18.5885 0.00952718 37.1979 0.0251512 55.7865C0.0668179 59.2083 -0.146724 62.6458 0.368901 66.0469C1.83244 78.5729 11.2387 89.5417 23.1554 93.4167C25.4574 94.2135 28.3064 95.1094 30.4731 93.4948C31.9366 92.5417 32.7752 90.8542 32.6814 89.1198C32.7179 82.4531 32.6241 75.7813 32.6814 69.1094C34.1033 69.0885 35.5512 69.0521 36.9731 69.0313C38.2856 76.8073 40.9679 85.3021 48.0356 89.7135C53.8324 93.1719 60.7699 93.7396 67.3637 93.7604C70.1033 93.7604 72.8585 93.474 75.5408 92.9219C76.4158 92.6771 77.2856 92.4115 78.1606 92.125C80.7856 91.2344 83.1606 89.6927 85.0408 87.6563C88.3689 83.9323 89.0356 78.0625 86.4106 73.7865C84.8689 71.1615 82.1137 69.6615 79.4158 68.4219Z" fill="white"/>
<mask id="mask0_79_2" style="mask-type:luminance" maskUnits="userSpaceOnUse" x="43" y="21" width="52" height="41">
<path d="M43.973 21.0703H94.8532V61.0703H43.973V21.0703Z" fill="white"/>
</mask>
<g mask="url(#mask0_79_2)">
<path d="M95.0407 45.105C93.4991 45.0685 91.9418 45.0477 90.4001 45.0477C89.5668 42.9748 88.7282 40.9019 87.7386 38.9071C86.3897 36.2664 84.7751 33.7404 82.8376 31.4956C81.5824 30.0894 80.2334 28.7769 78.7699 27.5998C72.7647 22.9227 64.7439 20.8706 57.2543 22.355C53.2074 23.0737 49.3689 25.2039 46.8584 28.4904C44.0251 32.2196 43.9678 37.9748 47.2386 41.4539C51.4209 45.881 57.7855 46.9487 63.4522 48.2769C69.0772 49.4748 74.7803 50.3133 80.2699 51.9852L83.5043 52.8966C83.5199 52.8966 83.5407 52.8966 83.5616 52.8966C83.6553 52.9331 83.7491 52.9539 83.8428 52.9904C84.1657 53.0894 84.473 53.1987 84.7751 53.3133C85.822 53.7144 86.8272 54.2456 87.8376 54.7612C90.4991 55.9748 92.7386 57.855 94.947 59.7404C95.0564 54.855 94.9261 49.9696 95.0407 45.105Z" fill="white"/>
</g>
<path d="M131.297 56.7695C129.307 56.7695 127.281 56.4779 125.213 55.8945C123.141 55.3008 121.213 54.4258 119.422 53.2695C117.641 52.1029 116.172 50.6654 115.005 48.957L116.068 40.9362H118.463C119.255 43.3945 120.391 45.5299 121.88 47.332C123.38 49.1393 125.073 50.5195 126.963 51.4779C128.849 52.4362 130.74 52.9154 132.63 52.9154C134.422 52.9154 135.87 52.5977 136.984 51.957C138.109 51.3216 138.932 50.4935 139.463 49.4779C140.005 48.4674 140.276 47.4049 140.276 46.2904C140.276 44.9049 139.828 43.5508 138.943 42.2279C138.052 40.9102 136.885 39.6133 135.443 38.332C133.995 37.0404 132.401 35.7643 130.651 34.4987C128.911 33.2383 127.172 31.957 125.422 30.6654C123.672 29.3633 122.073 28.0352 120.63 26.6862C119.182 25.3268 118.016 23.9154 117.13 22.457C116.24 20.9883 115.797 19.4518 115.797 17.8529C115.797 15.2852 116.49 13.1654 117.88 11.4987C119.266 9.82161 121.088 8.5612 123.338 7.72786C125.588 6.88412 127.99 6.45703 130.547 6.45703C132.588 6.45703 134.62 6.68099 136.651 7.1237C138.677 7.57161 140.568 8.22266 142.318 9.08203C144.068 9.94661 145.526 11.0143 146.693 12.2904L145.63 19.7695H143.213C142.641 17.6758 141.63 15.8893 140.172 14.4154C138.713 12.931 137.073 11.806 135.255 11.0404C133.432 10.2799 131.672 9.89453 129.963 9.89453C128.213 9.89453 126.703 10.3424 125.443 11.2279C124.177 12.1185 123.547 13.4727 123.547 15.2904C123.547 16.2904 123.969 17.3216 124.818 18.3737C125.677 19.4154 126.802 20.4935 128.193 21.6029C129.594 22.7018 131.135 23.8633 132.818 25.082C134.51 26.2904 136.193 27.556 137.859 28.8737C139.536 30.181 141.099 31.5716 142.547 33.0404C143.99 34.4987 145.156 36.0352 146.047 37.6445C146.948 39.2435 147.432 40.931 147.505 42.707C147.573 44.8893 147.182 46.8529 146.338 48.6029C145.505 50.3424 144.328 51.8216 142.818 53.0404C141.302 54.2487 139.552 55.1758 137.568 55.8112C135.594 56.4466 133.505 56.7695 131.297 56.7695Z" fill="white"/>
<path d="M162.951 54.8529V56.082L155.514 56.0195V54.8529C156.331 52.9674 156.894 50.707 157.201 48.082C157.503 45.457 157.659 42.4049 157.659 38.9154V7.26953H165.618L184.701 48.4779V24.4154C184.701 20.931 184.545 17.8841 184.243 15.2695C183.951 12.6445 183.394 10.3893 182.576 8.4987V7.3112L189.618 7.26953V8.4987C188.868 10.3893 188.435 12.6445 188.326 15.2695C188.227 17.8841 188.18 20.931 188.18 24.4154V56.0195H179.618L161.139 16.4154V38.9154C161.139 42.4049 161.243 45.457 161.451 48.082C161.659 50.707 162.159 52.9674 162.951 54.8529Z" fill="white"/>
<path d="M222.007 48.1654H224.424L222.986 56.0195H197.111V7.26953H221.903L223.361 15.1237H220.945C220.054 13.806 218.866 12.8477 217.382 12.2487C215.908 11.6393 214.195 11.2383 212.236 11.0404C210.278 10.8477 208.08 10.7487 205.653 10.7487V28.332C207.538 28.332 209.611 28.2279 211.861 28.0195C214.111 27.8008 216.137 27.3008 217.945 26.5195H219.174L219.132 33.9362H217.945C216.096 33.1185 214.054 32.5716 211.82 32.2904C209.596 31.9987 207.538 31.8424 205.653 31.8112V52.5404C208.262 52.5404 210.622 52.4674 212.736 52.3112C214.861 52.1445 216.715 51.7487 218.299 51.1237C219.882 50.4987 221.116 49.5143 222.007 48.1654Z" fill="white"/>
<path d="M253.396 30.9987V7.26953H261.938V56.0195H253.396V34.4779H239.917V56.0195H231.376V7.26953H239.917V30.9987H253.396Z" fill="white"/>
<path d="M290.331 7.26953L304.768 56.0195H298.56V53.8737C298.56 52.1393 298.399 50.5091 298.081 48.9779C297.758 47.4362 297.404 45.9883 297.018 44.6237L294.873 37.1029H282.373L276.852 56.0195H268.727L283.164 7.26953H290.331ZM288.664 15.3945L283.373 33.6237H293.852L288.664 15.3945Z" fill="white"/>
<path d="M116.198 71.6823V77.0573H122.052V78.7865H116.198V84.3281H122.74V86.0573H114.094V69.9531H122.74V71.6823H116.198Z" fill="#F4F6FC"/>
<path d="M144.791 86.0573H142.687L134.249 73.2656V86.0573H132.145V69.9531H134.249L142.687 82.7448V69.9531H144.791V86.0573Z" fill="#F4F6FC"/>
<path d="M164.471 69.9727V71.681H160.096V86.056H157.992V71.681H153.596V69.9727H164.471Z" fill="#F4F6FC"/>
<path d="M175.376 71.6823V77.0573H181.23V78.7865H175.376V84.3281H181.917V86.0573H173.272V69.9531H181.917V71.6823H175.376Z" fill="#F4F6FC"/>
<path d="M199.802 86.056L195.969 79.4935H193.427V86.056H191.323V69.9727H196.51C197.729 69.9727 198.76 70.181 199.594 70.5977C200.427 71.0143 201.052 71.5768 201.469 72.2852C201.885 72.9935 202.094 73.8008 202.094 74.7018C202.094 75.8164 201.771 76.7956 201.135 77.6393C200.495 78.4883 199.536 79.0508 198.26 79.3268L202.302 86.056H199.802ZM193.427 77.806H196.51C197.646 77.806 198.5 77.5299 199.073 76.9727C199.64 76.4049 199.927 75.6497 199.927 74.7018C199.927 73.7591 199.64 73.0247 199.073 72.4935C198.515 71.9674 197.661 71.7018 196.51 71.7018H193.427V77.806Z" fill="#F4F6FC"/>
<path d="M222.313 74.681C222.313 76.0299 221.855 77.1497 220.938 78.0352C220.022 78.9102 218.626 79.3477 216.751 79.3477H213.668V86.056H211.563V69.9727H216.751C218.569 69.9727 219.949 70.4206 220.897 71.306C221.839 72.181 222.313 73.306 222.313 74.681ZM216.751 77.6185C217.918 77.6185 218.777 77.3685 219.334 76.8685C219.886 76.3581 220.168 75.6289 220.168 74.681C220.168 72.6966 219.027 71.7018 216.751 71.7018H213.668V77.6185H216.751Z" fill="#F4F6FC"/>
<path d="M239.615 86.056L235.781 79.4935H233.24V86.056H231.136V69.9727H236.323C237.542 69.9727 238.573 70.181 239.406 70.5977C240.24 71.0143 240.865 71.5768 241.281 72.2852C241.698 72.9935 241.906 73.8008 241.906 74.7018C241.906 75.8164 241.584 76.7956 240.948 77.6393C240.307 78.4883 239.349 79.0508 238.073 79.3268L242.115 86.056H239.615ZM233.24 77.806H236.323C237.459 77.806 238.313 77.5299 238.886 76.9727C239.453 76.4049 239.74 75.6497 239.74 74.7018C239.74 73.7591 239.453 73.0247 238.886 72.4935C238.328 71.9674 237.474 71.7018 236.323 71.7018H233.24V77.806Z" fill="#F4F6FC"/>
<path d="M253.48 69.9727V86.056H251.376V69.9727H253.48Z" fill="#F4F6FC"/>
<path d="M268.378 86.224C267.321 86.224 266.368 86.0365 265.524 85.6615C264.691 85.2865 264.029 84.7656 263.545 84.099C263.071 83.4219 262.826 82.6406 262.816 81.7656H265.045C265.128 82.5156 265.441 83.1563 265.982 83.6823C266.534 84.1979 267.336 84.4531 268.378 84.4531C269.378 84.4531 270.159 84.2031 270.732 83.7031C271.316 83.2031 271.607 82.5573 271.607 81.7656C271.607 81.1563 271.43 80.6563 271.086 80.2656C270.753 79.8802 270.326 79.5885 269.816 79.3906C269.316 79.1979 268.633 78.9844 267.774 78.7448C266.717 78.4688 265.868 78.1927 265.232 77.9115C264.592 77.6354 264.045 77.2031 263.586 76.6198C263.138 76.026 262.92 75.224 262.92 74.224C262.92 73.349 263.138 72.5781 263.586 71.9115C264.029 71.2344 264.654 70.7031 265.461 70.3281C266.263 69.9531 267.191 69.7656 268.232 69.7656C269.743 69.7656 270.982 70.151 271.941 70.9115C272.899 71.6615 273.441 72.6615 273.566 73.9115H271.253C271.18 73.2865 270.862 72.7448 270.295 72.2865C269.722 71.8177 268.967 71.5781 268.024 71.5781C267.149 71.5781 266.43 71.8073 265.878 72.2656C265.321 72.7135 265.045 73.3438 265.045 74.1615C265.045 74.7448 265.211 75.224 265.545 75.599C265.878 75.9635 266.284 76.2396 266.774 76.4323C267.258 76.6302 267.941 76.8438 268.816 77.0781C269.868 77.3698 270.717 77.6615 271.357 77.9531C272.008 78.2344 272.566 78.6719 273.024 79.2656C273.493 79.8646 273.732 80.6719 273.732 81.6823C273.732 82.4635 273.524 83.1979 273.107 83.8906C272.691 84.5885 272.071 85.151 271.253 85.5781C270.446 86.0104 269.487 86.224 268.378 86.224Z" fill="#F4F6FC"/>
<path d="M285.135 71.6823V77.0573H290.989V78.7865H285.135V84.3281H291.676V86.0573H283.031V69.9531H291.676V71.6823H285.135Z" fill="#F4F6FC"/>
<path d="M306.186 86.224C305.128 86.224 304.175 86.0365 303.332 85.6615C302.498 85.2865 301.837 84.7656 301.352 84.099C300.878 83.4219 300.634 82.6406 300.623 81.7656H302.852C302.936 82.5156 303.248 83.1563 303.79 83.6823C304.342 84.1979 305.144 84.4531 306.186 84.4531C307.186 84.4531 307.967 84.2031 308.54 83.7031C309.123 83.2031 309.415 82.5573 309.415 81.7656C309.415 81.1563 309.238 80.6563 308.894 80.2656C308.561 79.8802 308.134 79.5885 307.623 79.3906C307.123 79.1979 306.441 78.9844 305.582 78.7448C304.524 78.4688 303.675 78.1927 303.04 77.9115C302.399 77.6354 301.852 77.2031 301.394 76.6198C300.946 76.026 300.727 75.224 300.727 74.224C300.727 73.349 300.946 72.5781 301.394 71.9115C301.837 71.2344 302.462 70.7031 303.269 70.3281C304.071 69.9531 304.998 69.7656 306.04 69.7656C307.55 69.7656 308.79 70.151 309.748 70.9115C310.707 71.6615 311.248 72.6615 311.373 73.9115H309.061C308.988 73.2865 308.67 72.7448 308.102 72.2865C307.53 71.8177 306.774 71.5781 305.832 71.5781C304.957 71.5781 304.238 71.8073 303.686 72.2656C303.128 72.7135 302.852 73.3438 302.852 74.1615C302.852 74.7448 303.019 75.224 303.352 75.599C303.686 75.9635 304.092 76.2396 304.582 76.4323C305.066 76.6302 305.748 76.8438 306.623 77.0781C307.675 77.3698 308.524 77.6615 309.165 77.9531C309.816 78.2344 310.373 78.6719 310.832 79.2656C311.3 79.8646 311.54 80.6719 311.54 81.6823C311.54 82.4635 311.332 83.1979 310.915 83.8906C310.498 84.5885 309.878 85.151 309.061 85.5781C308.253 86.0104 307.295 86.224 306.186 86.224Z" fill="#F4F6FC"/>
</svg>
