<svg width="231" height="301" viewBox="0 0 231 301" fill="none" xmlns="http://www.w3.org/2000/svg">
<g clip-path="url(#clip0_72_75)">
<path d="M182.298 148.077C166.592 143.181 150.175 141.206 134.234 137.107C119.277 133.119 102.977 128.224 93.4043 115.204C81.2631 97.444 85.2978 71.0782 101.399 57.0711C114.648 44.7555 133.603 41.0886 151.202 41.9158C159.197 42.6258 167.223 44.0456 174.625 47.1631C179.018 48.941 183.449 51.3053 188.195 51.7807C189.105 51.8609 190.015 51.8979 190.961 51.8239H191.005C191.357 51.7807 191.716 51.7436 192.069 51.7004C192.824 51.6634 193.573 51.5461 194.328 51.3856L209 49.5336C208.053 46.8853 206.983 44.4036 205.757 42.0702C205.207 41.0084 204.613 39.9404 204.018 38.9527C204.018 38.9156 203.975 38.9156 203.975 38.8786C200.262 32.6807 195.671 27.668 190.609 23.6431C182.731 16.8155 173.436 11.7226 163.35 8.8829C161.926 8.53102 160.46 8.21002 158.999 7.93839C148.318 5.33329 137.316 6.35805 126.437 6.1605C90.007 6.08025 53.5275 6.4383 17.0914 6C16.9367 44.6012 17.0171 83.2332 17.0542 121.834C17.1347 128.934 16.7015 136.076 17.7659 143.144C20.8105 169.152 40.3962 191.919 65.1985 199.969C69.9882 201.63 75.9226 203.482 80.4277 200.129C83.4784 198.154 85.2173 194.641 85.0193 191.055C85.0998 177.202 84.9017 163.349 85.0193 149.497C87.9896 149.46 90.9909 149.379 93.9613 149.336C96.6903 165.479 102.266 183.122 116.988 192.277C129.048 199.457 143.492 200.642 157.217 200.685C162.916 200.685 168.653 200.092 174.228 198.944C176.048 198.432 177.867 197.882 179.686 197.29C185.144 195.432 190.095 192.234 194.006 188.011C200.931 180.276 202.317 168.084 196.859 159.207C193.653 153.756 187.917 150.639 182.298 148.077Z" fill="white"/>
<mask id="mask0_72_75" style="mask-type:luminance" maskUnits="userSpaceOnUse" x="108" y="49" width="107" height="82">
<path d="M108.596 49.9883H215V130.733H108.596V49.9883Z" fill="white"/>
</mask>
<g mask="url(#mask0_72_75)">
<path d="M214.697 99.7965C211.494 99.7161 208.253 99.679 205.049 99.679C203.311 95.3684 201.574 91.0579 199.514 86.9081C196.706 81.4101 193.348 76.1533 189.316 71.4841C186.706 68.5588 183.898 65.8315 180.856 63.3824C168.363 53.6543 151.677 49.387 136.099 52.4669C127.676 53.9697 119.691 58.3978 114.472 65.2378C108.584 72.9869 108.46 84.9662 115.263 92.202C123.959 101.417 137.206 103.631 148.987 106.395C160.688 108.888 172.55 110.625 183.979 114.107L190.701 116.006C190.738 116.006 190.776 116.006 190.819 116.006C191.017 116.086 191.215 116.123 191.413 116.204C192.081 116.402 192.718 116.637 193.348 116.872C195.525 117.707 197.616 118.814 199.712 119.877C205.247 122.407 209.916 126.322 214.499 130.236C214.74 120.075 214.462 109.914 214.697 99.7965Z" fill="white"/>
</g>
<path d="M34.7021 271.773C32.7125 271.773 30.6864 271.482 28.6187 270.898C26.5458 270.305 24.6187 269.43 22.8271 268.273C21.0458 267.107 19.5771 265.669 18.4104 263.961L19.4729 255.94H21.8687C22.6604 258.398 23.7958 260.534 25.2854 262.336C26.7854 264.143 28.4781 265.523 30.3687 266.482C32.2542 267.44 34.1448 267.919 36.0354 267.919C37.8271 267.919 39.275 267.602 40.3896 266.961C41.5146 266.326 42.3375 265.497 42.8687 264.482C43.4104 263.471 43.6812 262.409 43.6812 261.294C43.6812 259.909 43.2333 258.555 42.3479 257.232C41.4573 255.914 40.2906 254.617 38.8479 253.336C37.4 252.044 35.8062 250.768 34.0562 249.503C32.3167 248.242 30.5771 246.961 28.8271 245.669C27.0771 244.367 25.4781 243.039 24.0354 241.69C22.5875 240.331 21.4208 238.919 20.5354 237.461C19.6448 235.992 19.2021 234.456 19.2021 232.857C19.2021 230.289 19.8948 228.169 21.2854 226.503C22.6708 224.826 24.4937 223.565 26.7437 222.732C28.9937 221.888 31.3948 221.461 33.9521 221.461C35.9937 221.461 38.025 221.685 40.0562 222.128C42.0823 222.576 43.9729 223.227 45.7229 224.086C47.4729 224.951 48.9312 226.018 50.0979 227.294L49.0354 234.773H46.6187C46.0458 232.68 45.0354 230.893 43.5771 229.419C42.1187 227.935 40.4781 226.81 38.6604 226.044C36.8375 225.284 35.0771 224.898 33.3687 224.898C31.6187 224.898 30.1083 225.346 28.8479 226.232C27.5823 227.122 26.9521 228.477 26.9521 230.294C26.9521 231.294 27.3739 232.326 28.2229 233.378C29.0823 234.419 30.2073 235.497 31.5979 236.607C32.9989 237.706 34.5406 238.867 36.2229 240.086C37.9156 241.294 39.5979 242.56 41.2646 243.878C42.9417 245.185 44.5042 246.576 45.9521 248.044C47.3948 249.503 48.5614 251.039 49.4521 252.648C50.3531 254.247 50.8375 255.935 50.9104 257.711C50.9781 259.893 50.5875 261.857 49.7437 263.607C48.9104 265.346 47.7333 266.826 46.2229 268.044C44.7073 269.253 42.9573 270.18 40.9729 270.815C38.9989 271.451 36.9104 271.773 34.7021 271.773Z" fill="white"/>
<path d="M66.3562 269.857V271.086L58.9187 271.023V269.857C59.7364 267.971 60.2989 265.711 60.6062 263.086C60.9083 260.461 61.0645 257.409 61.0645 253.919V222.273H69.0229L88.1062 263.482V239.419C88.1062 235.935 87.95 232.888 87.6479 230.273C87.3562 227.648 86.7989 225.393 85.9812 223.503V222.315L93.0229 222.273V223.503C92.2729 225.393 91.8406 227.648 91.7312 230.273C91.6322 232.888 91.5854 235.935 91.5854 239.419V271.023H83.0229L64.5437 231.419V253.919C64.5437 257.409 64.6479 260.461 64.8562 263.086C65.0645 265.711 65.5645 267.971 66.3562 269.857Z" fill="white"/>
<path d="M125.412 263.169H127.829L126.391 271.023H100.516V222.273H125.308L126.766 230.128H124.35C123.459 228.81 122.272 227.852 120.787 227.253C119.313 226.643 117.6 226.242 115.641 226.044C113.683 225.852 111.485 225.753 109.058 225.753V243.336C110.943 243.336 113.016 243.232 115.266 243.023C117.516 242.805 119.542 242.305 121.35 241.523H122.579L122.537 248.94H121.35C119.501 248.122 117.459 247.576 115.225 247.294C113.001 247.003 110.943 246.846 109.058 246.815V267.544C111.667 267.544 114.027 267.471 116.141 267.315C118.266 267.148 120.121 266.753 121.704 266.128C123.287 265.503 124.522 264.518 125.412 263.169Z" fill="white"/>
<path d="M156.802 246.003V222.273H165.343V271.023H156.802V249.482H143.322V271.023H134.781V222.273H143.322V246.003H156.802Z" fill="white"/>
<path d="M193.736 222.273L208.174 271.023H201.965V268.878C201.965 267.143 201.804 265.513 201.486 263.982C201.163 262.44 200.809 260.992 200.424 259.628L198.278 252.107H185.778L180.257 271.023H172.132L186.57 222.273H193.736ZM192.07 230.398L186.778 248.628H197.257L192.07 230.398Z" fill="white"/>
<path d="M19.6032 286.682V292.057H25.4574V293.786H19.6032V299.328H26.1449V301.057H17.499V284.953H26.1449V286.682H19.6032Z" fill="#E9EAEC"/>
<path d="M48.196 301.057H46.0918L37.6543 288.266V301.057H35.5502V284.953H37.6543L46.0918 297.745V284.953H48.196V301.057Z" fill="#E9EAEC"/>
<path d="M67.8761 284.977V286.685H63.5011V301.06H61.3969V286.685H57.0011V284.977H67.8761Z" fill="#E9EAEC"/>
<path d="M78.7809 286.682V292.057H84.6351V293.786H78.7809V299.328H85.3226V301.057H76.6768V284.953H85.3226V286.682H78.7809Z" fill="#E9EAEC"/>
<path d="M103.207 301.06L99.3737 294.497H96.8321V301.06H94.7279V284.977H99.9154C101.134 284.977 102.165 285.185 102.999 285.602C103.832 286.018 104.457 286.581 104.874 287.289C105.29 287.997 105.499 288.805 105.499 289.706C105.499 290.82 105.176 291.799 104.54 292.643C103.9 293.492 102.941 294.055 101.665 294.331L105.707 301.06H103.207ZM96.8321 292.81H99.9154C101.051 292.81 101.905 292.534 102.478 291.977C103.046 291.409 103.332 290.654 103.332 289.706C103.332 288.763 103.046 288.029 102.478 287.497C101.921 286.971 101.066 286.706 99.9154 286.706H96.8321V292.81Z" fill="#E9EAEC"/>
<path d="M125.719 289.685C125.719 291.034 125.26 292.154 124.344 293.039C123.427 293.914 122.031 294.352 120.156 294.352H117.073V301.06H114.969V284.977H120.156C121.974 284.977 123.354 285.424 124.302 286.31C125.245 287.185 125.719 288.31 125.719 289.685ZM120.156 292.622C121.323 292.622 122.182 292.372 122.739 291.872C123.291 291.362 123.573 290.633 123.573 289.685C123.573 287.701 122.432 286.706 120.156 286.706H117.073V292.622H120.156Z" fill="#E9EAEC"/>
<path d="M143.02 301.06L139.187 294.497H136.645V301.06H134.541V284.977H139.728C140.947 284.977 141.978 285.185 142.812 285.602C143.645 286.018 144.27 286.581 144.687 287.289C145.103 287.997 145.312 288.805 145.312 289.706C145.312 290.82 144.989 291.799 144.353 292.643C143.713 293.492 142.754 294.055 141.478 294.331L145.52 301.06H143.02ZM136.645 292.81H139.728C140.864 292.81 141.718 292.534 142.291 291.977C142.858 291.409 143.145 290.654 143.145 289.706C143.145 288.763 142.858 288.029 142.291 287.497C141.733 286.971 140.879 286.706 139.728 286.706H136.645V292.81Z" fill="#E9EAEC"/>
<path d="M156.886 284.977V301.06H154.781V284.977H156.886Z" fill="#E9EAEC"/>
<path d="M171.783 301.224C170.726 301.224 169.773 301.036 168.929 300.661C168.096 300.286 167.434 299.766 166.95 299.099C166.476 298.422 166.231 297.641 166.221 296.766H168.45C168.533 297.516 168.846 298.156 169.387 298.682C169.939 299.198 170.742 299.453 171.783 299.453C172.783 299.453 173.564 299.203 174.137 298.703C174.721 298.203 175.012 297.557 175.012 296.766C175.012 296.156 174.835 295.656 174.492 295.266C174.158 294.88 173.731 294.589 173.221 294.391C172.721 294.198 172.038 293.984 171.179 293.745C170.122 293.469 169.273 293.193 168.637 292.911C167.997 292.635 167.45 292.203 166.992 291.62C166.544 291.026 166.325 290.224 166.325 289.224C166.325 288.349 166.544 287.578 166.992 286.911C167.434 286.234 168.059 285.703 168.867 285.328C169.669 284.953 170.596 284.766 171.637 284.766C173.148 284.766 174.387 285.151 175.346 285.911C176.304 286.661 176.846 287.661 176.971 288.911H174.658C174.585 288.286 174.268 287.745 173.7 287.286C173.127 286.818 172.372 286.578 171.429 286.578C170.554 286.578 169.835 286.807 169.283 287.266C168.726 287.714 168.45 288.344 168.45 289.161C168.45 289.745 168.617 290.224 168.95 290.599C169.283 290.964 169.689 291.24 170.179 291.432C170.663 291.63 171.346 291.844 172.221 292.078C173.273 292.37 174.122 292.661 174.762 292.953C175.413 293.234 175.971 293.672 176.429 294.266C176.898 294.865 177.137 295.672 177.137 296.682C177.137 297.464 176.929 298.198 176.512 298.891C176.096 299.589 175.476 300.151 174.658 300.578C173.851 301.01 172.893 301.224 171.783 301.224Z" fill="#E9EAEC"/>
<path d="M188.54 286.682V292.057H194.394V293.786H188.54V299.328H195.082V301.057H186.436V284.953H195.082V286.682H188.54Z" fill="#E9EAEC"/>
<path d="M209.591 301.224C208.534 301.224 207.581 301.036 206.737 300.661C205.903 300.286 205.242 299.766 204.758 299.099C204.284 298.422 204.039 297.641 204.028 296.766H206.258C206.341 297.516 206.653 298.156 207.195 298.682C207.747 299.198 208.549 299.453 209.591 299.453C210.591 299.453 211.372 299.203 211.945 298.703C212.528 298.203 212.82 297.557 212.82 296.766C212.82 296.156 212.643 295.656 212.299 295.266C211.966 294.88 211.539 294.589 211.028 294.391C210.528 294.198 209.846 293.984 208.987 293.745C207.929 293.469 207.081 293.193 206.445 292.911C205.804 292.635 205.258 292.203 204.799 291.62C204.351 291.026 204.133 290.224 204.133 289.224C204.133 288.349 204.351 287.578 204.799 286.911C205.242 286.234 205.867 285.703 206.674 285.328C207.476 284.953 208.403 284.766 209.445 284.766C210.956 284.766 212.195 285.151 213.153 285.911C214.112 286.661 214.653 287.661 214.778 288.911H212.466C212.393 288.286 212.075 287.745 211.508 287.286C210.935 286.818 210.179 286.578 209.237 286.578C208.362 286.578 207.643 286.807 207.091 287.266C206.534 287.714 206.258 288.344 206.258 289.161C206.258 289.745 206.424 290.224 206.758 290.599C207.091 290.964 207.497 291.24 207.987 291.432C208.471 291.63 209.153 291.844 210.028 292.078C211.081 292.37 211.929 292.661 212.57 292.953C213.221 293.234 213.778 293.672 214.237 294.266C214.706 294.865 214.945 295.672 214.945 296.682C214.945 297.464 214.737 298.198 214.32 298.891C213.903 299.589 213.284 300.151 212.466 300.578C211.659 301.01 210.7 301.224 209.591 301.224Z" fill="#E9EAEC"/>
</g>
<defs>
<clipPath id="clip0_72_75">
<rect width="231" height="301" fill="white"/>
</clipPath>
</defs>
</svg>
