<svg width="314" height="95" viewBox="0 0 314 95" fill="none" xmlns="http://www.w3.org/2000/svg">
<path d="M79.4158 68.4219C71.8689 66.0677 63.9835 65.1146 56.322 63.1406C49.1397 61.2188 41.3064 58.8646 36.7074 52.5938C30.8741 44.0365 32.8116 31.3438 40.546 24.5938C46.9158 18.6667 56.0199 16.8958 64.4783 17.2969C68.3168 17.6406 72.1762 18.3229 75.7283 19.8229C77.8377 20.6823 79.9679 21.8229 82.2491 22.0469C82.6866 22.0885 83.1241 22.1042 83.5772 22.0677H83.5981C83.7699 22.0469 83.9418 22.0313 84.1085 22.0104C84.4731 21.9896 84.8324 21.9323 85.1918 21.8594L92.2439 20.9635C91.7908 19.6927 91.2751 18.4948 90.6866 17.375C90.421 16.8594 90.1345 16.349 89.8533 15.8698C89.8533 15.8542 89.8324 15.8542 89.8324 15.8333C88.046 12.849 85.8429 10.4375 83.4054 8.49479C79.6241 5.20833 75.1606 2.75521 70.3116 1.39063C69.6293 1.21875 68.9262 1.06771 68.2231 0.932292C63.0877 -0.322918 57.8064 0.171876 52.5772 0.078125C35.072 0.0416677 17.5512 0.208333 0.0459845 0C-0.0321408 18.5885 0.00952718 37.1979 0.0251512 55.7865C0.0668179 59.2083 -0.146724 62.6458 0.368901 66.0469C1.83244 78.5729 11.2387 89.5417 23.1554 93.4167C25.4574 94.2135 28.3064 95.1094 30.4731 93.4948C31.9366 92.5417 32.7752 90.8542 32.6814 89.1198C32.7179 82.4531 32.6241 75.7813 32.6814 69.1094C34.1033 69.0885 35.5512 69.0521 36.9731 69.0313C38.2856 76.8073 40.9679 85.3021 48.0356 89.7135C53.8324 93.1719 60.7699 93.7396 67.3637 93.7604C70.1033 93.7604 72.8585 93.474 75.5408 92.9219C76.4158 92.6771 77.2856 92.4115 78.1606 92.125C80.7856 91.2344 83.1606 89.6927 85.0408 87.6563C88.3689 83.9323 89.0356 78.0625 86.4106 73.7865C84.8689 71.1615 82.1137 69.6615 79.4158 68.4219Z" fill="#FF3700"/>
<mask id="mask0_74_2" style="mask-type:luminance" maskUnits="userSpaceOnUse" x="43" y="21" width="52" height="41">
<path d="M43.9731 21.0703H94.8533V61.0703H43.9731V21.0703Z" fill="white"/>
</mask>
<g mask="url(#mask0_74_2)">
<path d="M95.0408 45.105C93.4991 45.0685 91.9418 45.0477 90.4002 45.0477C89.5668 42.9748 88.7283 40.9019 87.7387 38.9071C86.3897 36.2664 84.7752 33.7404 82.8377 31.4956C81.5825 30.0894 80.2335 28.7769 78.77 27.5998C72.7647 22.9227 64.7439 20.8706 57.2543 22.355C53.2075 23.0737 49.3689 25.2039 46.8585 28.4904C44.0252 32.2196 43.9679 37.9748 47.2387 41.4539C51.421 45.881 57.7856 46.9487 63.4522 48.2769C69.0772 49.4748 74.7804 50.3133 80.27 51.9852L83.5043 52.8966C83.52 52.8966 83.5408 52.8966 83.5616 52.8966C83.6554 52.9331 83.7491 52.9539 83.8429 52.9904C84.1658 53.0894 84.4731 53.1987 84.7752 53.3133C85.822 53.7144 86.8272 54.2456 87.8377 54.7612C90.4991 55.9748 92.7387 57.855 94.947 59.7404C95.0564 54.855 94.9262 49.9696 95.0408 45.105Z" fill="#FF3700"/>
</g>
<path d="M133.324 55.3672C131.334 55.3672 129.308 55.0755 127.24 54.4922C125.168 53.8984 123.24 53.0234 121.449 51.8672C119.668 50.7005 118.199 49.263 117.032 47.5547L118.095 39.5339H120.49C121.282 41.9922 122.418 44.1276 123.907 45.9297C125.407 47.737 127.1 49.1172 128.99 50.0755C130.876 51.0339 132.766 51.513 134.657 51.513C136.449 51.513 137.897 51.1953 139.011 50.5547C140.136 49.9193 140.959 49.0911 141.49 48.0755C142.032 47.0651 142.303 46.0026 142.303 44.888C142.303 43.5026 141.855 42.1484 140.97 40.8255C140.079 39.5078 138.912 38.2109 137.47 36.9297C136.022 35.638 134.428 34.362 132.678 33.0964C130.938 31.8359 129.199 30.5547 127.449 29.263C125.699 27.9609 124.1 26.6328 122.657 25.2839C121.209 23.9245 120.043 22.513 119.157 21.0547C118.266 19.5859 117.824 18.0495 117.824 16.4505C117.824 13.8828 118.516 11.763 119.907 10.0964C121.293 8.41927 123.115 7.15885 125.365 6.32552C127.615 5.48177 130.016 5.05469 132.574 5.05469C134.615 5.05469 136.647 5.27865 138.678 5.72135C140.704 6.16927 142.595 6.82031 144.345 7.67969C146.095 8.54427 147.553 9.61198 148.72 10.888L147.657 18.3672H145.24C144.668 16.2734 143.657 14.487 142.199 13.013C140.74 11.5286 139.1 10.4036 137.282 9.63802C135.459 8.8776 133.699 8.49219 131.99 8.49219C130.24 8.49219 128.73 8.9401 127.47 9.82552C126.204 10.7161 125.574 12.0703 125.574 13.888C125.574 14.888 125.996 15.9193 126.845 16.9714C127.704 18.013 128.829 19.0911 130.22 20.2005C131.621 21.2995 133.162 22.4609 134.845 23.6797C136.537 24.888 138.22 26.1536 139.886 27.4714C141.563 28.7786 143.126 30.1693 144.574 31.638C146.016 33.0964 147.183 34.6328 148.074 36.2422C148.975 37.8411 149.459 39.5286 149.532 41.3047C149.6 43.487 149.209 45.4505 148.365 47.2005C147.532 48.9401 146.355 50.4193 144.845 51.638C143.329 52.8464 141.579 53.7734 139.595 54.4089C137.621 55.0443 135.532 55.3672 133.324 55.3672Z" fill="#141414"/>
<path d="M164.978 53.4505V54.6797L157.54 54.6172V53.4505C158.358 51.5651 158.921 49.3047 159.228 46.6797C159.53 44.0547 159.686 41.0026 159.686 37.513V5.86719H167.645L186.728 47.0755V23.013C186.728 19.5286 186.572 16.4818 186.27 13.8672C185.978 11.2422 185.421 8.98698 184.603 7.09635V5.90885L191.645 5.86719V7.09635C190.895 8.98698 190.462 11.2422 190.353 13.8672C190.254 16.4818 190.207 19.5286 190.207 23.013V54.6172H181.645L163.165 15.013V37.513C163.165 41.0026 163.27 44.0547 163.478 46.6797C163.686 49.3047 164.186 51.5651 164.978 53.4505Z" fill="#141414"/>
<path d="M224.034 46.763H226.451L225.013 54.6172H199.138V5.86719H223.93L225.388 13.7214H222.971C222.081 12.4036 220.893 11.4453 219.409 10.8464C217.935 10.237 216.221 9.83594 214.263 9.63802C212.305 9.44531 210.107 9.34635 207.68 9.34635V26.9297C209.565 26.9297 211.638 26.8255 213.888 26.6172C216.138 26.3984 218.164 25.8984 219.971 25.1172H221.201L221.159 32.5339H219.971C218.122 31.7161 216.081 31.1693 213.846 30.888C211.622 30.5964 209.565 30.4401 207.68 30.4089V51.138C210.289 51.138 212.649 51.0651 214.763 50.9089C216.888 50.7422 218.742 50.3464 220.326 49.7214C221.909 49.0964 223.143 48.112 224.034 46.763Z" fill="#141414"/>
<path d="M255.423 29.5964V5.86719H263.965V54.6172H255.423V33.0755H241.944V54.6172H233.403V5.86719H241.944V29.5964H255.423Z" fill="#141414"/>
<path d="M292.358 5.86719L306.795 54.6172H300.587V52.4714C300.587 50.737 300.426 49.1068 300.108 47.5755C299.785 46.0339 299.431 44.5859 299.045 43.2214L296.9 35.7005H284.4L278.879 54.6172H270.754L285.191 5.86719H292.358ZM290.691 13.9922L285.4 32.2214H295.879L290.691 13.9922Z" fill="#141414"/>
<path d="M118.225 70.2799V75.6549H124.079V77.3841H118.225V82.9258H124.767V84.6549H116.121V68.5508H124.767V70.2799H118.225Z" fill="#020202"/>
<path d="M146.818 84.6549H144.714L136.276 71.8633V84.6549H134.172V68.5508H136.276L144.714 81.3424V68.5508H146.818V84.6549Z" fill="#020202"/>
<path d="M166.498 68.5703V70.2786H162.123V84.6536H160.019V70.2786H155.623V68.5703H166.498Z" fill="#020202"/>
<path d="M177.403 70.2799V75.6549H183.257V77.3841H177.403V82.9258H183.944V84.6549H175.299V68.5508H183.944V70.2799H177.403Z" fill="#020202"/>
<path d="M201.829 84.6536L197.996 78.0911H195.454V84.6536H193.35V68.5703H198.537C199.756 68.5703 200.787 68.7786 201.621 69.1953C202.454 69.612 203.079 70.1745 203.496 70.8828C203.912 71.5911 204.121 72.3984 204.121 73.2995C204.121 74.4141 203.798 75.3932 203.162 76.237C202.522 77.0859 201.563 77.6484 200.287 77.9245L204.329 84.6536H201.829ZM195.454 76.4036H198.537C199.673 76.4036 200.527 76.1276 201.1 75.5703C201.667 75.0026 201.954 74.2474 201.954 73.2995C201.954 72.3568 201.667 71.6224 201.1 71.0911C200.542 70.5651 199.688 70.2995 198.537 70.2995H195.454V76.4036Z" fill="#020202"/>
<path d="M224.34 73.2786C224.34 74.6276 223.882 75.7474 222.965 76.6328C222.049 77.5078 220.653 77.9453 218.778 77.9453H215.694V84.6536H213.59V68.5703H218.778C220.596 68.5703 221.976 69.0182 222.924 69.9036C223.866 70.7786 224.34 71.9036 224.34 73.2786ZM218.778 76.2161C219.944 76.2161 220.804 75.9661 221.361 75.4661C221.913 74.9557 222.194 74.2266 222.194 73.2786C222.194 71.2943 221.054 70.2995 218.778 70.2995H215.694V76.2161H218.778Z" fill="#020202"/>
<path d="M241.642 84.6536L237.808 78.0911H235.267V84.6536H233.163V68.5703H238.35C239.569 68.5703 240.6 68.7786 241.433 69.1953C242.267 69.612 242.892 70.1745 243.308 70.8828C243.725 71.5911 243.933 72.3984 243.933 73.2995C243.933 74.4141 243.61 75.3932 242.975 76.237C242.334 77.0859 241.376 77.6484 240.1 77.9245L244.142 84.6536H241.642ZM235.267 76.4036H238.35C239.485 76.4036 240.34 76.1276 240.913 75.5703C241.48 75.0026 241.767 74.2474 241.767 73.2995C241.767 72.3568 241.48 71.6224 240.913 71.0911C240.355 70.5651 239.501 70.2995 238.35 70.2995H235.267V76.4036Z" fill="#020202"/>
<path d="M255.507 68.5703V84.6536H253.403V68.5703H255.507Z" fill="#020202"/>
<path d="M270.405 84.8216C269.348 84.8216 268.395 84.6341 267.551 84.2591C266.717 83.8841 266.056 83.3633 265.572 82.6966C265.098 82.0195 264.853 81.2383 264.842 80.3633H267.072C267.155 81.1133 267.467 81.7539 268.009 82.2799C268.561 82.7956 269.363 83.0508 270.405 83.0508C271.405 83.0508 272.186 82.8008 272.759 82.3008C273.342 81.8008 273.634 81.1549 273.634 80.3633C273.634 79.7539 273.457 79.2539 273.113 78.8633C272.78 78.4779 272.353 78.1862 271.842 77.9883C271.342 77.7956 270.66 77.582 269.801 77.3424C268.744 77.0664 267.895 76.7904 267.259 76.5091C266.619 76.2331 266.072 75.8008 265.613 75.2174C265.165 74.6237 264.947 73.8216 264.947 72.8216C264.947 71.9466 265.165 71.1758 265.613 70.5091C266.056 69.832 266.681 69.3008 267.488 68.9258C268.29 68.5508 269.217 68.3633 270.259 68.3633C271.77 68.3633 273.009 68.7487 273.967 69.5091C274.926 70.2591 275.467 71.2591 275.592 72.5091H273.28C273.207 71.8841 272.889 71.3424 272.322 70.8841C271.749 70.4154 270.994 70.1758 270.051 70.1758C269.176 70.1758 268.457 70.4049 267.905 70.8633C267.348 71.3112 267.072 71.9414 267.072 72.7591C267.072 73.3424 267.238 73.8216 267.572 74.1966C267.905 74.5612 268.311 74.8372 268.801 75.0299C269.285 75.2279 269.967 75.4414 270.842 75.6758C271.895 75.9674 272.744 76.2591 273.384 76.5508C274.035 76.832 274.592 77.2695 275.051 77.8633C275.52 78.4622 275.759 79.2695 275.759 80.2799C275.759 81.0612 275.551 81.7956 275.134 82.4883C274.717 83.1862 274.098 83.7487 273.28 84.1758C272.473 84.6081 271.514 84.8216 270.405 84.8216Z" fill="#020202"/>
<path d="M287.162 70.2799V75.6549H293.016V77.3841H287.162V82.9258H293.703V84.6549H285.057V68.5508H293.703V70.2799H287.162Z" fill="#020202"/>
<path d="M308.213 84.8216C307.155 84.8216 306.202 84.6341 305.359 84.2591C304.525 83.8841 303.864 83.3633 303.379 82.6966C302.905 82.0195 302.661 81.2383 302.65 80.3633H304.879C304.963 81.1133 305.275 81.7539 305.817 82.2799C306.369 82.7956 307.171 83.0508 308.213 83.0508C309.213 83.0508 309.994 82.8008 310.567 82.3008C311.15 81.8008 311.442 81.1549 311.442 80.3633C311.442 79.7539 311.265 79.2539 310.921 78.8633C310.588 78.4779 310.161 78.1862 309.65 77.9883C309.15 77.7956 308.468 77.582 307.609 77.3424C306.551 77.0664 305.702 76.7904 305.067 76.5091C304.426 76.2331 303.879 75.8008 303.421 75.2174C302.973 74.6237 302.754 73.8216 302.754 72.8216C302.754 71.9466 302.973 71.1758 303.421 70.5091C303.864 69.832 304.489 69.3008 305.296 68.9258C306.098 68.5508 307.025 68.3633 308.067 68.3633C309.577 68.3633 310.817 68.7487 311.775 69.5091C312.734 70.2591 313.275 71.2591 313.4 72.5091H311.088C311.015 71.8841 310.697 71.3424 310.129 70.8841C309.557 70.4154 308.801 70.1758 307.859 70.1758C306.984 70.1758 306.265 70.4049 305.713 70.8633C305.155 71.3112 304.879 71.9414 304.879 72.7591C304.879 73.3424 305.046 73.8216 305.379 74.1966C305.713 74.5612 306.119 74.8372 306.609 75.0299C307.093 75.2279 307.775 75.4414 308.65 75.6758C309.702 75.9674 310.551 76.2591 311.192 76.5508C311.843 76.832 312.4 77.2695 312.859 77.8633C313.327 78.4622 313.567 79.2695 313.567 80.2799C313.567 81.0612 313.359 81.7956 312.942 82.4883C312.525 83.1862 311.905 83.7487 311.088 84.1758C310.28 84.6081 309.322 84.8216 308.213 84.8216Z" fill="#020202"/>
</svg>
